####
#
#	OBJ File Generated by LightWave3D
#	LightWave3D OBJ Export v2.3
#
####
o cube.obj
mtllib cube.mtl
g default
v -0.5 -0.5 0.5
v 0.5 -0.5 0.5
v 0.5 -0.5 -0.5
v -0.5 -0.5 -0.5
v -0.5 0.5 0.5
v 0.5 0.5 0.5
v 0.5 0.5 -0.5
v -0.5 0.5 -0.5
vt 0.00641027 0.00641026
vt 0.00641027 0.326923
vt 0.00641027 0.339744
vt 0.00641027 0.660256
vt 0.326923 0.00641026
vt 0.326923 0.326923
vt 0.326923 0.339744
vt 0.326923 0.660256
vt 0.339744 0.00641026
vt 0.339744 0.326923
vt 0.339744 0.339744
vt 0.339744 0.660256
vt 0.660256 0.00641026
vt 0.660256 0.326923
vt 0.660256 0.339744
vt 0.660256 0.660256
vt 0.673077 0.00641026
vt 0.673077 0.326923
vt 0.673077 0.339744
vt 0.673077 0.660256
vt 0.99359 0.00641026
vt 0.99359 0.326923
vt 0.99359 0.339744
vt 0.99359 0.660256
vn 0 -1 -0
vn 0 -1 -0
vn 0 -1 -0
vn 0 -1 -0
vn 0 0 1
vn 0 0 1
vn 0 0 1
vn 0 0 1
vn 1 0 -0
vn 1 0 -0
vn 1 0 -0
vn 1 0 -0
vn 0 0 -1
vn 0 0 -1
vn 0 0 -1
vn 0 0 -1
vn -1 0 -0
vn -1 0 -0
vn -1 0 -0
vn -1 0 -0
vn 0 1 -0
vn 0 1 -0
vn 0 1 -0
vn 0 1 -0
g cube
usemtl cube
s off
f 4/12/1 3/16/2 2/15/3 1/11/4
f 2/13/5 6/14/6 5/10/7 1/9/8
f 3/5/9 7/6/10 6/2/11 2/1/12
f 8/4/13 7/8/14 3/7/15 4/3/16
f 5/18/17 8/22/18 4/21/19 1/17/20
f 6/23/21 7/24/22 8/20/23 5/19/24
